#!OML:ASF I:\Actors\actors\Patient Classification 2\Patient 1\Session 1\actor1.ASF
:FULLY-SPECIFIED
:DEGREES
970
root -0.756249 18.5725 6.04423 -3.69158 -0.907569 -3.67281
lowerback 2.90008 0.989424 0.754396
upperback -0.35283 1.37819 1.58965
thorax -2.00884 0.688501 1.1443
lowerneck -10.1215 -2.79987 -3.82036
upperneck 29.9225 -3.59742 1.37757
head 11.4911 -1.89114 0.711256
rclavicle -3.9993e-014 -1.82882e-014
rhumerus -16.6387 24.8899 -67.8769
rradius 109.115
rwrist -45.4108
rhand 7.93631 -50.7189
rfingers 7.12502
rthumb 33.1665 -77.6838
lclavicle -3.9993e-014 -1.82882e-014
lhumerus -47.8575 1.33719 86.3933
lradius 47.3626
lwrist -3.92975
lhand -6.53553 -25.302
lfingers 7.12502
lthumb 19.3175 3.75852
rfemur 0 0 0
rtibia 0
rfoot 0 0
rtoes 0
lfemur 0.979 -5.25712 -10.6121
ltibia 23.206
lfoot -23.855 11.7514
ltoes -55.5901
971
root -0.758622 18.5725 6.04764 -3.75588 -0.941449 -3.67451
lowerback 2.84324 0.987569 0.709694
upperback -0.391047 1.37382 1.58833
thorax -2.01712 0.686872 1.16884
lowerneck -10.0438 -2.74455 -3.77772
upperneck 30.0491 -3.52204 1.34377
head 11.5207 -1.85731 0.702122
rclavicle 9.80257e-015 7.00716e-015
rhumerus -16.8237 24.9126 -68.2776
rradius 108.892
rwrist -45.2078
rhand 7.87988 -50.8435
rfingers 7.12502
rthumb 33.1128 -77.8198
lclavicle 9.80257e-015 7.00716e-015
lhumerus -47.9468 1.42153 86.3908
lradius 47.3001
lwrist -4.06855
lhand -6.51392 -25.3111
lfingers 7.12502
lthumb 19.3383 3.74739
rfemur 0 0 0
rtibia 0
rfoot 0 0
rtoes 0
lfemur 1.07725 -5.23572 -10.6078
ltibia 23.183
lfoot -23.8331 11.7312
ltoes -55.5913
972
root -0.761579 18.5702 6.05133 -3.88597 -0.991047 -3.67202
lowerback 2.83979 0.997796 0.656481
upperback -0.396041 1.3857 1.59184
thorax -2.02185 0.693447 1.20174
lowerneck -10.015 -2.67931 -3.71771
upperneck 30.1842 -3.43127 1.30123
head 11.5627 -1.81517 0.688047
rclavicle -1.21507e-014 1.68967e-015
rhumerus -16.9638 24.8842 -68.6495
rradius 108.671
rwrist -45.0006
rhand 7.79035 -50.8072
rfingers 7.12502
rthumb 33.0277 -77.8016
lclavicle -1.21507e-014 1.68967e-015
lhumerus -47.9648 1.43067 86.4332
lradius 47.1529
lwrist -4.12268
lhand -6.44715 -25.4379
lfingers 7.12502
lthumb 19.4025 3.61407
rfemur 0 0 0
rtibia 0
rfoot 0 0
rtoes 0
lfemur 1.24667 -5.14408 -10.597
ltibia 23.1673
lfoot -23.798 11.6928
ltoes -55.6331
973
root -0.76505 18.5657 6.05319 -4.03758 -1.05911 -3.71052
lowerback 2.84798 1.02027 0.644013
upperback -0.363578 1.41509 1.60652
thorax -1.99429 0.708315 1.22262
lowerneck -10.0102 -2.6325 -3.65097
upperneck 30.2797 -3.37091 1.27158
head 11.5952 -1.78413 0.673353
rclavicle -4.52856e-015 1.98785e-015
rhumerus -17.0539 24.7708 -69.0156
rradius 108.423
rwrist -44.786
rhand 7.56025 -50.6507
rfingers 7.12502
rthumb 32.8088 -77.6911
lclavicle -4.52856e-015 1.98785e-015
lhumerus -47.9047 1.33869 86.5409
lradius 47.0178
lwrist -4.04303
lhand -6.47198 -25.4541
lfingers 7.12502
lthumb 19.3786 3.60025
rfemur 0 0 0
rtibia 0
rfoot 0 0
rtoes 0
lfemur 1.44437 -5.06709 -10.5346
ltibia 23.1587
lfoot -23.8048 11.6252
ltoes -55.5998
974
root -0.768193 18.5631 6.05389 -4.11555 -1.08175 -3.74711
lowerback 2.80359 1.02583 0.643758
upperback -0.36209 1.42151 1.59494
thorax -1.96766 0.711469 1.21143
lowerneck -9.9424 -2.59721 -3.54769
upperneck 30.3647 -3.33832 1.24331
head 11.6108 -1.76184 0.650088
rclavicle 5.72127e-015 -5.61567e-015
rhumerus -17.1634 24.6678 -69.436
rradius 108.151
rwrist -44.5001
rhand 7.49897 -50.539
rfingers 7.12502
rthumb 32.7505 -77.5915
lclavicle 5.72127e-015 -5.61567e-015
lhumerus -47.8843 1.17622 86.6409
lradius 46.9726
lwrist -3.85086
lhand -6.56256 -25.2182
lfingers 7.12502
lthumb 19.2915 3.8449
rfemur 0 0 0
rtibia 0
rfoot 0 0
rtoes 0
lfemur 1.54459 -5.08726 -10.4878
ltibia 23.1628
lfoot -23.852 11.599
ltoes -55.5572
975
root -0.772108 18.5617 6.05529 -4.16 -1.07966 -3.75293
lowerback 2.72682 1.02499 0.618678
upperback -0.368989 1.41788 1.56853
thorax -1.93151 0.709819 1.1999
lowerneck -9.82028 -2.55175 -3.5466
upperneck 30.4049 -3.31232 1.35717
head 11.6027 -1.73702 0.697064
rclavicle -1.51573e-014 -1.96797e-014
rhumerus -17.2044 24.5504 -69.8321
rradius 107.866
rwrist -44.2983
rhand 7.58528 -50.5954
rfingers 7.12502
rthumb 32.8326 -77.6308
lclavicle -1.51573e-014 -1.96797e-014
lhumerus -47.8684 1.07709 86.6948
lradius 46.9229
lwrist -3.7597
lhand -6.67401 -25.0644
lfingers 7.12502
lthumb 19.1843 4.0094
rfemur 0 0 0
rtibia 0
rfoot 0 0
rtoes 0
lfemur 1.58924 -5.10489 -10.4762
ltibia 23.1806
lfoot -23.8702 11.6078
ltoes -55.6056
976
root -0.776239 18.5599 6.05713 -4.21818 -1.08935 -3.75551
lowerback 2.6841 1.04259 0.577333
upperback -0.375697 1.43918 1.55668
thorax -1.91549 0.720867 1.21072
lowerneck -9.758 -2.51711 -3.58125
upperneck 30.4539 -3.29805 1.49203
head 11.6119 -1.71847 0.755722
rclavicle 1.38404e-014 5.76476e-015
rhumerus -17.2447 24.4092 -70.1866
rradius 107.605
rwrist -44.1527
rhand 7.42361 -50.6294
rfingers 7.12502
rthumb 32.6788 -77.6969
lclavicle 1.38404e-014 5.76476e-015
lhumerus -47.8601 1.06306 86.7379
lradius 46.8349
lwrist -3.8274
lhand -6.78175 -25.1343
lfingers 7.12502
lthumb 19.0807 3.94971
rfemur 0 0 0
rtibia 0
rfoot 0 0
rtoes 0
lfemur 1.64571 -5.08274 -10.4619
ltibia 23.2053
lfoot -23.8623 11.6196
ltoes -55.6757
977
root -0.779301 18.5591 6.05783 -4.26112 -1.08097 -3.77248
lowerback 2.67408 1.06227 0.557368
upperback -0.414623 1.46502 1.54219
thorax -1.95038 0.733974 1.20568
lowerneck -9.73955 -2.49679 -3.52676
upperneck 30.5507 -3.28603 1.50334
head 11.6448 -1.70559 0.752323
rclavicle -4.57205e-015 -1.55052e-014
rhumerus -17.3737 24.2501 -70.5574
rradius 107.378
rwrist -43.9073
rhand 7.24366 -50.4497
rfingers 7.12502
rthumb 32.5076 -77.5525
lclavicle -4.57205e-015 -1.55052e-014
lhumerus -47.9254 1.0497 86.7635
lradius 46.7829
lwrist -3.88363
lhand -6.78356 -25.2297
lfingers 7.12502
lthumb 19.079 3.85455
rfemur 0 0 0
rtibia 0
rfoot 0 0
rtoes 0
lfemur 1.67537 -5.0433 -10.4245
ltibia 23.2283
lfoot -23.8364 11.6058
ltoes -55.7361
978
root -0.782298 18.5592 6.05823 -4.28617 -1.07621 -3.81254
lowerback 2.67771 1.07701 0.565464
upperback -0.484114 1.48619 1.54103
thorax -2.0239 0.744557 1.19822
lowerneck -9.64848 -2.47368 -3.49429
upperneck 30.6188 -3.26705 1.51416
head 11.6519 -1.69263 0.754362
rclavicle -1.99406e-014 -1.40143e-014
rhumerus -17.5627 24.1027 -70.9457
rradius 107.166
rwrist -43.599
rhand 7.29411 -50.3823
rfingers 7.12502
rthumb 32.5556 -77.4752
lclavicle -1.99406e-014 -1.40143e-014
lhumerus -48.0271 1.04769 86.78
lradius 46.7453
lwrist -3.92779
lhand -6.62968 -25.244
lfingers 7.12502
lthumb 19.227 3.82553
rfemur 0 0 0
rtibia 0
rfoot 0 0
rtoes 0
lfemur 1.68323 -4.98165 -10.3534
ltibia 23.2526
lfoot -23.7901 11.5564
ltoes -55.7844
979
root -0.785923 18.5589 6.05967 -4.31413 -1.08595 -3.84899
lowerback 2.67073 1.08346 0.532824
upperback -0.552578 1.49536 1.56928
thorax -2.09206 0.749838 1.24451
lowerneck -9.51793 -2.43364 -3.49025
upperneck 30.6526 -3.2213 1.53554
head 11.6373 -1.6698 0.769154
rclavicle 9.4547e-015 -5.86415e-015
rhumerus -17.739 24.0404 -71.3159
rradius 106.937
rwrist -43.3445
rhand 7.1785 -50.3666
rfingers 7.12502
rthumb 32.4456 -77.4821
lclavicle 9.4547e-015 -5.86415e-015
lhumerus -48.1015 1.07268 86.8374
lradius 46.6563
lwrist -3.98127
lhand -6.48351 -25.229
lfingers 7.12502
lthumb 19.3675 3.82656
rfemur 0 0 0
rtibia 0
rfoot 0 0
rtoes 0
lfemur 1.7095 -5.00887 -10.3084
ltibia 23.2772
lfoot -23.8056 11.5591
ltoes -55.7579
980
root -0.789614 18.5583 6.06148 -4.34435 -1.06818 -3.92019
lowerback 2.62766 1.08102 0.528406
upperback -0.58208 1.49251 1.60182
thorax -2.09913 0.748758 1.28106
lowerneck -9.45405 -2.39515 -3.46792
upperneck 30.6845 -3.17894 1.55555
head 11.6353 -1.64606 0.778981
rclavicle -5.70885e-015 -3.27995e-015
rhumerus -17.8272 23.977 -71.6541
rradius 106.688
rwrist -43.1976
rhand 6.79087 -50.1801
rfingers 7.12502
rthumb 32.0766 -77.3707
lclavicle -5.70885e-015 -3.27995e-015
lhumerus -48.1111 1.08033 86.905
lradius 46.5611
lwrist -3.99342
lhand -6.46933 -25.2502
lfingers 7.12502
lthumb 19.3811 3.80397
rfemur 0 0 0
rtibia 0
rfoot 0 0
rtoes 0
lfemur 1.73757 -5.08743 -10.2333
ltibia 23.2975
lfoot -23.8463 11.6055
ltoes -55.7796
981
root -0.792441 18.5581 6.06279 -4.35732 -1.02767 -4.0273
lowerback 2.56111 1.07839 0.608875
upperback -0.581344 1.49112 1.62662
thorax -2.0596 0.747233 1.26281
lowerneck -9.46501 -2.38327 -3.47076
upperneck 30.7103 -3.17591 1.60517
head 11.6485 -1.63878 0.79822
rclavicle 2.5345e-015 1.43125e-014
rhumerus -17.865 23.8697 -71.9756
rradius 106.455
rwrist -42.9918
rhand 6.57533 -50.2184
rfingers 7.12502
rthumb 31.8714 -77.4501
lclavicle 2.5345e-015 1.43125e-014
lhumerus -48.0554 1.13467 86.9384
lradius 46.4742
lwrist -4.02494
lhand -6.47742 -25.2889
lfingers 7.12502
lthumb 19.3734 3.76598
rfemur 0 0 0
rtibia 0
rfoot 0 0
rtoes 0
lfemur 1.73826 -5.1147 -10.1025
ltibia 23.3138
lfoot -23.8483 11.595
ltoes -55.8535
982
root -0.794653 18.5579 6.06423 -4.35557 -1.00361 -4.07052
lowerback 2.47847 1.0687 0.638908
upperback -0.583584 1.47798 1.63394
thorax -2.01469 0.740381 1.25566
lowerneck -9.44818 -2.36249 -3.43656
upperneck 30.7048 -3.15488 1.60901
head 11.6415 -1.62498 0.796624
rclavicle 2.09221e-014 1.50082e-014
rhumerus -17.9578 23.8121 -72.3442
rradius 106.193
rwrist -42.5347
rhand 6.55377 -50.1261
rfingers 7.12502
rthumb 31.8508 -77.3618
lclavicle 2.09221e-014 1.50082e-014
lhumerus -48.0156 1.20036 86.9684
lradius 46.3983
lwrist -4.06944
lhand -6.47654 -25.3308
lfingers 7.12502
lthumb 19.3742 3.724
rfemur 0 0 0
rtibia 0
rfoot 0 0
rtoes 0
lfemur 1.72895 -5.14247 -10.0479
ltibia 23.3291
lfoot -23.8619 11.5588
ltoes -55.8401
983
root -0.797557 18.5575 6.06677 -4.34289 -1.00376 -4.07917
lowerback 2.39002 1.06437 0.612855
upperback -0.612794 1.47031 1.627
thorax -1.99534 0.736892 1.26488
lowerneck -9.35788 -2.31794 -3.30685
upperneck 30.6684 -3.09902 1.53683
head 11.6027 -1.59426 0.755542
rclavicle 2.1916e-014 6.4605e-015
rhumerus -18.0884 23.7702 -72.7314
rradius 105.877
rwrist -42.0566
rhand 6.52852 -49.8367
rfingers 7.12502
rthumb 31.8268 -77.0772
lclavicle 2.1916e-014 6.4605e-015
lhumerus -48.0203 1.17163 87.014
lradius 46.3352
lwrist -4.1152
lhand -6.50266 -25.369
lfingers 7.12502
lthumb 19.3491 3.68832
rfemur 0 0 0
rtibia 0
rfoot 0 0
rtoes 0
lfemur 1.71666 -5.13054 -10.0238
ltibia 23.3423
lfoot -23.8736 11.545
ltoes -55.8292
984
root -0.800883 18.558 6.06934 -4.31611 -0.992402 -4.11147
lowerback 2.31584 1.07198 0.60975
upperback -0.653704 1.47989 1.62669
thorax -1.99593 0.741797 1.26693
lowerneck -9.29419 -2.27947 -3.20341
upperneck 30.6499 -3.05685 1.50321
head 11.5783 -1.5677 0.731297
rclavicle 4.60932e-015 -3.77691e-015
rhumerus -18.1851 23.6753 -73.0459
rradius 105.56
rwrist -41.7736
rhand 6.48965 -49.8536
rfingers 7.12502
rthumb 31.7898 -77.1015
lclavicle 4.60932e-015 -3.77691e-015
lhumerus -48.0215 1.11318 87.079
lradius 46.2895
lwrist -4.15447
lhand -6.54111 -25.3362
lfingers 7.12502
lthumb 19.3121 3.72482
rfemur 0 0 0
rtibia 0
rfoot 0 0
rtoes 0
lfemur 1.685 -5.04958 -9.95135
ltibia 23.3484
lfoot -23.833 11.4858
ltoes -55.856
985
root -0.803509 18.5591 6.07138 -4.27878 -0.958553 -4.14691
lowerback 2.23371 1.07994 0.629539
upperback -0.684869 1.49035 1.62815
thorax -1.98152 0.746855 1.25822
lowerneck -9.25527 -2.25704 -3.18487
upperneck 30.6268 -3.04521 1.55781
head 11.5612 -1.55372 0.750281
rclavicle -2.75814e-015 1.07344e-014
rhumerus -18.2556 23.4932 -73.2884
rradius 105.131
rwrist -41.0585
rhand 7.40838 -49.7817
rfingers 7.12502
rthumb 32.6643 -76.8522
lclavicle -2.75814e-015 1.07344e-014
lhumerus -48.0361 1.02863 87.1701
lradius 46.2893
lwrist -4.10448
lhand -6.55702 -25.2826
lfingers 7.12502
lthumb 19.2968 3.77995
rfemur 0 0 0
rtibia 0
rfoot 0 0
rtoes 0
lfemur 1.63251 -4.96888 -9.87388
ltibia 23.3527
lfoot -23.7761 11.3955
ltoes -55.8921
